<svg width="2229" height="346" viewBox="0 0 2229 346" fill="none" xmlns="http://www.w3.org/2000/svg">
<path d="M569.417 346C553.999 346 540.113 343.246 527.758 337.739C515.509 332.126 505.793 323.865 498.613 312.957C491.538 302.048 488 288.598 488 272.606C488 258.838 490.534 247.453 495.603 238.451C500.672 229.449 507.589 222.247 516.353 216.846C525.118 211.444 534.992 207.367 545.974 204.613C557.062 201.754 568.519 199.689 580.346 198.418C594.602 196.935 606.165 195.611 615.036 194.446C623.906 193.175 630.348 191.269 634.36 188.727C638.479 186.08 640.538 182.002 640.538 176.495V175.542C640.538 163.574 637 154.307 629.925 147.741C622.85 141.175 612.66 137.892 599.354 137.892C585.31 137.892 574.169 140.963 565.932 147.106C557.801 153.248 552.31 160.503 549.459 168.87L495.92 161.244C500.144 146.417 507.113 134.026 516.829 124.071C526.544 114.009 538.424 106.49 552.468 101.512C566.513 96.4288 582.036 93.8871 599.037 93.8871C610.759 93.8871 622.428 95.2639 634.044 98.0175C645.66 100.771 656.272 105.325 665.882 111.68C675.491 117.928 683.2 126.454 689.008 137.256C694.922 148.059 697.878 161.562 697.878 177.766V341.075H642.756V307.556H640.855C637.37 314.334 632.46 320.688 626.124 326.619C619.893 332.444 612.026 337.157 602.522 340.758C593.124 344.253 582.089 346 569.417 346ZM584.306 303.743C595.817 303.743 605.796 301.466 614.244 296.912C622.692 292.252 629.186 286.109 633.727 278.484C638.373 270.859 640.696 262.545 640.696 253.543V224.789C638.901 226.272 635.839 227.648 631.509 228.919C627.285 230.19 622.533 231.302 617.253 232.255C611.973 233.208 606.746 234.056 601.572 234.797C596.398 235.538 591.91 236.174 588.108 236.703C579.554 237.868 571.899 239.775 565.14 242.422C558.382 245.07 553.049 248.777 549.142 253.543C545.235 258.203 543.281 264.239 543.281 271.653C543.281 282.244 547.136 290.24 554.844 295.641C562.553 301.042 572.374 303.743 584.306 303.743Z" fill="white"/>
<path d="M812.876 15.7273V341.075H755.535V15.7273H812.876Z" fill="white"/>
<path d="M993.332 97.0643V141.545H853.465V97.0643H993.332ZM887.996 38.6033H945.337V267.681C945.337 275.413 946.498 281.343 948.821 285.474C951.25 289.498 954.418 292.252 958.325 293.735C962.233 295.217 966.562 295.959 971.314 295.959C974.904 295.959 978.178 295.694 981.135 295.164C984.197 294.635 986.52 294.158 988.104 293.735L997.767 338.692C994.704 339.751 990.322 340.916 984.62 342.187C979.023 343.458 972.159 344.2 964.028 344.411C949.666 344.835 936.73 342.664 925.22 337.898C913.71 333.026 904.575 325.507 897.817 315.34C891.164 305.173 887.891 292.464 887.996 277.213V38.6033Z" fill="white"/>
<path d="M1041.29 341.075V97.0643H1098.63V341.075H1041.29ZM1070.12 62.4325C1061.03 62.4325 1053.22 59.4142 1046.67 53.3774C1040.13 47.2348 1036.85 39.8742 1036.85 31.2957C1036.85 22.6113 1040.13 15.2507 1046.67 9.21395C1053.22 3.07132 1061.03 0 1070.12 0C1079.3 0 1087.12 3.07132 1093.56 9.21395C1100.11 15.2507 1103.38 22.6113 1103.38 31.2957C1103.38 39.8742 1100.11 47.2348 1093.56 53.3774C1087.12 59.4142 1079.3 62.4325 1070.12 62.4325Z" fill="white"/>
<path d="M1279.08 97.0643V141.545H1139.22V97.0643H1279.08ZM1173.75 38.6033H1231.09V267.681C1231.09 275.413 1232.25 281.343 1234.57 285.474C1237 289.498 1240.17 292.252 1244.08 293.735C1247.98 295.217 1252.31 295.959 1257.07 295.959C1260.66 295.959 1263.93 295.694 1266.89 295.164C1269.95 294.635 1272.27 294.158 1273.86 293.735L1283.52 338.692C1280.46 339.751 1276.07 340.916 1270.37 342.187C1264.77 343.458 1257.91 344.2 1249.78 344.411C1235.42 344.835 1222.48 342.664 1210.97 337.898C1199.46 333.026 1190.33 325.507 1183.57 315.34C1176.92 305.173 1173.64 292.464 1173.75 277.213V38.6033Z" fill="white"/>
<path d="M1327.04 341.075V97.0643H1382.64V137.733H1385.17C1389.61 123.647 1397.21 112.792 1407.98 105.166C1418.86 97.435 1431.26 93.5693 1445.2 93.5693C1448.37 93.5693 1451.91 93.7282 1455.82 94.0459C1459.83 94.2577 1463.16 94.6284 1465.8 95.1579V148.059C1463.37 147.212 1459.51 146.47 1454.23 145.835C1449.06 145.093 1444.04 144.723 1439.18 144.723C1428.73 144.723 1419.33 147 1410.99 151.554C1402.75 156.002 1396.26 162.197 1391.51 170.141C1386.75 178.084 1384.38 187.245 1384.38 197.624V341.075H1327.04Z" fill="white"/>
<path d="M1569.55 346C1554.13 346 1540.24 343.246 1527.89 337.739C1515.64 332.126 1505.92 323.865 1498.74 312.957C1491.67 302.048 1488.13 288.598 1488.13 272.606C1488.13 258.838 1490.66 247.453 1495.73 238.451C1500.8 229.449 1507.72 222.247 1516.48 216.846C1525.25 211.444 1535.12 207.367 1546.1 204.613C1557.19 201.754 1568.65 199.689 1580.48 198.418C1594.73 196.935 1606.29 195.611 1615.17 194.446C1624.04 193.175 1630.48 191.269 1634.49 188.727C1638.61 186.08 1640.67 182.002 1640.67 176.495V175.542C1640.67 163.574 1637.13 154.307 1630.05 147.741C1622.98 141.175 1612.79 137.892 1599.48 137.892C1585.44 137.892 1574.3 140.963 1566.06 147.106C1557.93 153.248 1552.44 160.503 1549.59 168.87L1496.05 161.244C1500.27 146.417 1507.24 134.026 1516.96 124.071C1526.67 114.009 1538.55 106.49 1552.6 101.512C1566.64 96.4288 1582.17 93.8871 1599.17 93.8871C1610.89 93.8871 1622.56 95.2639 1634.17 98.0175C1645.79 100.771 1656.4 105.325 1666.01 111.68C1675.62 117.928 1683.33 126.454 1689.14 137.256C1695.05 148.059 1698.01 161.562 1698.01 177.766V341.075H1642.89V307.556H1640.98C1637.5 314.334 1632.59 320.688 1626.25 326.619C1620.02 332.444 1612.16 337.157 1602.65 340.758C1593.25 344.253 1582.22 346 1569.55 346ZM1584.44 303.743C1595.95 303.743 1605.93 301.466 1614.37 296.912C1622.82 292.252 1629.32 286.109 1633.86 278.484C1638.5 270.859 1640.83 262.545 1640.83 253.543V224.789C1639.03 226.272 1635.97 227.648 1631.64 228.919C1627.41 230.19 1622.66 231.302 1617.38 232.255C1612.1 233.208 1606.88 234.056 1601.7 234.797C1596.53 235.538 1592.04 236.174 1588.24 236.703C1579.68 237.868 1572.03 239.775 1565.27 242.422C1558.51 245.07 1553.18 248.777 1549.27 253.543C1545.36 258.203 1543.41 264.239 1543.41 271.653C1543.41 282.244 1547.27 290.24 1554.97 295.641C1562.68 301.042 1572.5 303.743 1584.44 303.743Z" fill="white"/>
<path d="M1861.79 345.841C1837.5 345.841 1816.65 340.493 1799.22 329.796C1781.91 319.099 1768.55 304.325 1759.15 285.474C1749.86 266.516 1745.21 244.699 1745.21 220.023C1745.21 195.241 1749.96 173.371 1759.47 154.413C1768.97 135.35 1782.38 120.523 1799.7 109.932C1817.12 99.2354 1837.72 93.8871 1861.48 93.8871C1881.22 93.8871 1898.7 97.5409 1913.91 104.848C1929.22 112.05 1941.41 122.27 1950.5 135.509C1959.58 148.641 1964.75 163.998 1966.02 181.579H1911.21C1908.99 169.823 1903.72 160.026 1895.37 152.189C1887.14 144.246 1876.1 140.275 1862.27 140.275C1850.55 140.275 1840.25 143.452 1831.38 149.806C1822.51 156.055 1815.59 165.057 1810.63 176.813C1805.77 188.568 1803.34 202.654 1803.34 219.07C1803.34 235.697 1805.77 249.995 1810.63 261.962C1815.49 273.824 1822.3 282.985 1831.06 289.445C1839.93 295.8 1850.33 298.977 1862.27 298.977C1870.72 298.977 1878.27 297.388 1884.92 294.211C1891.68 290.928 1897.33 286.215 1901.87 280.073C1906.41 273.93 1909.52 266.463 1911.21 257.673H1966.02C1964.65 274.936 1959.58 290.24 1950.81 303.584C1942.05 316.822 1930.11 327.201 1915.01 334.721C1899.91 342.134 1882.17 345.841 1861.79 345.841Z" fill="white"/>
<path d="M2120.81 345.841C2096.42 345.841 2075.35 340.758 2057.61 330.59C2039.98 320.317 2026.41 305.808 2016.9 287.062C2007.4 268.211 2002.65 246.023 2002.65 220.5C2002.65 195.399 2007.4 173.371 2016.9 154.413C2026.51 135.35 2039.92 120.523 2057.14 109.932C2074.35 99.2354 2094.57 93.8871 2117.8 93.8871C2132.8 93.8871 2146.95 96.3229 2160.25 101.195C2173.67 105.961 2185.49 113.374 2195.74 123.435C2206.08 133.496 2214.22 146.311 2220.13 161.88C2226.04 177.342 2229 195.77 2229 217.163V234.797H2029.58V196.035H2174.04C2173.93 185.021 2171.55 175.224 2166.91 166.646C2162.26 157.961 2155.77 151.13 2147.42 146.152C2139.19 141.175 2129.58 138.686 2118.6 138.686C2106.87 138.686 2096.58 141.545 2087.71 147.264C2078.84 152.878 2071.92 160.291 2066.96 169.505C2062.1 178.613 2059.62 188.621 2059.51 199.53V233.367C2059.51 247.559 2062.1 259.738 2067.27 269.905C2072.45 279.967 2079.68 287.698 2088.98 293.099C2098.27 298.395 2109.15 301.042 2121.61 301.042C2129.95 301.042 2137.5 299.877 2144.26 297.547C2151.01 295.111 2156.88 291.564 2161.84 286.904C2166.8 282.244 2170.55 276.472 2173.09 269.588L2226.62 275.624C2223.24 289.816 2216.8 302.207 2207.3 312.798C2197.9 323.283 2185.86 331.438 2171.18 337.263C2156.51 342.982 2139.72 345.841 2120.81 345.841Z" fill="white"/>
<path d="M303.717 346C320.245 346 335.132 343.062 348.377 337.186C361.509 331.197 371.925 322.383 379.623 310.744C387.208 299.104 391 284.753 391 267.69C391 253 388.283 240.852 382.849 231.247C377.415 221.642 370 213.958 360.604 208.195C351.208 202.432 340.623 198.081 328.849 195.143C316.962 192.092 304.679 189.888 292 188.532C276.717 186.95 264.321 185.538 254.811 184.295C245.302 182.939 238.396 180.905 234.094 178.193C229.679 175.368 227.472 171.017 227.472 165.141V164.124C227.472 151.355 231.264 141.467 238.849 134.461C246.434 127.455 257.359 123.952 271.623 123.952C286.679 123.952 298.623 127.229 307.453 133.783C316.17 140.337 322.057 148.078 325.113 157.005L382.509 148.869C377.981 133.049 370.509 119.828 360.094 109.205C349.679 98.4703 336.943 90.4472 321.887 85.1361C306.83 79.712 290.189 77 271.962 77C259.396 77 246.887 78.469 234.434 81.4071C221.981 84.3451 210.604 89.2041 200.302 95.9842C190 102.651 181.736 111.748 175.509 123.274C169.17 134.8 166 149.208 166 166.497V340.745H225.094V304.98H227.132C230.868 312.213 236.132 318.993 242.925 325.321C249.604 331.536 258.038 336.564 268.226 340.406C278.302 344.135 290.132 346 303.717 346ZM287.755 300.912C275.415 300.912 264.717 298.483 255.66 293.624C246.604 288.652 239.642 282.098 234.774 273.962C229.792 265.825 227.302 256.955 227.302 247.35V216.67C229.226 218.252 232.509 219.721 237.151 221.077C241.679 222.433 246.774 223.619 252.434 224.636C258.094 225.653 263.698 226.557 269.245 227.348C274.792 228.139 279.604 228.817 283.679 229.382C292.849 230.625 301.057 232.66 308.302 235.485C315.547 238.31 321.264 242.265 325.453 247.35C329.641 252.322 331.736 258.763 331.736 266.673C331.736 277.973 327.604 286.505 319.34 292.268C311.075 298.031 300.547 300.912 287.755 300.912Z" fill="#7795FA" fill-opacity="0.8"/>
<path d="M87.283 346C70.7547 346 55.8679 343.062 42.6226 337.186C29.4906 331.197 19.0755 322.383 11.3774 310.744C3.79245 299.104 0 284.753 0 267.69C0 253 2.71698 240.852 8.15094 231.247C13.5849 221.642 21 213.958 30.3962 208.195C39.7924 202.432 50.3774 198.081 62.1509 195.143C74.0377 192.092 86.3208 189.888 99 188.532C114.283 186.95 126.679 185.538 136.189 184.295C145.698 182.939 152.604 180.905 156.906 178.193C161.321 175.368 163.528 171.017 163.528 165.141V164.124C163.528 151.355 159.736 141.467 152.151 134.461C144.566 127.455 133.641 123.952 119.377 123.952C104.321 123.952 92.3774 127.229 83.5472 133.783C74.8302 140.337 68.9434 148.078 65.8868 157.005L8.49056 148.869C13.0189 133.049 20.4906 119.828 30.9057 109.205C41.3207 98.4703 54.0566 90.4472 69.1132 85.1361C84.1698 79.712 100.811 77 119.038 77C131.604 77 144.113 78.469 156.566 81.4071C169.019 84.3451 180.396 89.2041 190.698 95.9842C201 102.651 209.264 111.748 215.491 123.274C221.83 134.8 225 149.208 225 166.497V340.745H165.906V304.98H163.868C160.132 312.213 154.868 318.993 148.075 325.321C141.396 331.536 132.962 336.564 122.774 340.406C112.698 344.135 100.868 346 87.283 346ZM103.245 300.912C115.585 300.912 126.283 298.483 135.34 293.624C144.396 288.652 151.358 282.098 156.226 273.962C161.208 265.825 163.698 256.955 163.698 247.35V216.67C161.774 218.252 158.491 219.721 153.849 221.077C149.321 222.433 144.226 223.619 138.566 224.636C132.906 225.653 127.302 226.557 121.755 227.348C116.208 228.139 111.396 228.817 107.321 229.382C98.1509 230.625 89.9434 232.66 82.6981 235.485C75.4528 238.31 69.7358 242.265 65.5472 247.35C61.3585 252.322 59.2641 258.763 59.2641 266.673C59.2641 277.973 63.3962 286.505 71.6604 292.268C79.9245 298.031 90.4528 300.912 103.245 300.912Z" fill="#CFDAFF"/>
</svg>