<svg width="400" height="271" viewBox="0 0 400 271" fill="none" xmlns="http://www.w3.org/2000/svg">
<path d="M86.8997 270.071C70.2013 270.071 55.3205 267.174 42.2571 261.381C29.1938 255.474 18.8567 246.784 11.2458 235.311C3.74862 223.724 0 209.298 0 192.031C0 177.491 2.66947 165.28 8.00841 155.397C13.3473 145.514 20.6174 137.563 29.8185 131.542C39.0197 125.522 49.4704 120.978 61.1706 117.911C72.9844 114.844 85.3662 112.686 98.3159 111.436C113.538 109.846 125.806 108.369 135.121 107.006C144.435 105.529 151.194 103.371 155.397 100.531C159.6 97.6912 161.702 93.4882 161.702 87.9221V86.8997C161.702 76.1082 158.294 67.7591 151.478 61.8521C144.776 55.9452 135.234 52.9918 122.852 52.9918C109.789 52.9918 99.3951 55.8884 91.6707 61.6818C83.9463 67.3615 78.8345 74.5179 76.3354 83.1511L9.20115 77.6986C12.609 61.7953 19.311 48.0504 29.3074 36.4638C39.3037 24.7636 52.1966 15.7896 67.9862 9.54191C83.8895 3.18063 102.292 0 123.193 0C137.733 0 151.649 1.70391 164.939 5.11173C178.343 8.51957 190.214 13.8017 200.551 20.9581C211.002 28.1146 219.237 37.3158 225.258 48.5616C231.278 59.6938 234.288 73.0412 234.288 88.6036V265.129H165.45V228.836H163.406C159.203 237.015 153.58 244.228 146.537 250.476C139.494 256.61 131.031 261.437 121.148 264.959C111.266 268.367 99.8495 270.071 86.8997 270.071ZM107.687 219.976C118.365 219.976 127.794 217.874 135.972 213.671C144.151 209.354 150.569 203.561 155.227 196.291C159.884 189.021 162.213 180.785 162.213 171.584V143.811C159.941 145.287 156.817 146.65 152.841 147.9C148.979 149.036 144.606 150.115 139.721 151.137C134.837 152.046 129.952 152.898 125.067 153.693C120.183 154.375 115.753 155 111.777 155.568C103.257 156.817 95.8169 158.805 89.4556 161.531C83.0943 164.257 78.1529 167.949 74.6315 172.607C71.1101 177.15 69.3494 182.83 69.3494 189.646C69.3494 199.529 72.9276 207.083 80.084 212.308C87.3541 217.42 96.5552 219.976 107.687 219.976Z" fill="white"/>
<path d="M312.184 270.071C328.882 270.071 343.763 267.174 356.826 261.381C369.89 255.474 380.227 246.784 387.838 235.311C395.335 223.724 399.083 209.298 399.083 192.031C399.083 177.491 396.414 165.28 391.075 155.397C385.736 145.514 378.466 137.563 369.265 131.542C360.064 125.522 349.613 120.978 337.913 117.911C326.099 114.844 313.717 112.686 300.767 111.436C285.546 109.846 273.278 108.369 263.963 107.006C254.648 105.529 247.889 103.371 243.686 100.531C239.483 97.6912 237.382 93.4882 237.382 87.9221V86.8997C237.382 76.1082 240.79 67.7591 247.605 61.8521C254.307 55.9452 263.849 52.9918 276.231 52.9918C289.294 52.9918 299.688 55.8884 307.413 61.6818C315.137 67.3615 320.249 74.5179 322.748 83.1511L389.882 77.6986C386.474 61.7953 379.772 48.0504 369.776 36.4638C359.78 24.7636 346.887 15.7896 331.097 9.54191C315.194 3.18063 296.792 0 275.89 0C261.35 0 247.435 1.70391 234.144 5.11173C220.74 8.51957 208.87 13.8017 198.533 20.9581C188.082 28.1146 179.846 37.3158 173.826 48.5616C167.805 59.6938 164.795 73.0412 164.795 88.6036V265.129H233.633V228.836H235.678C239.881 237.015 245.504 244.228 252.547 250.476C259.59 256.61 268.052 261.437 277.935 264.959C287.818 268.367 299.234 270.071 312.184 270.071ZM291.396 219.976C280.718 219.976 271.29 217.874 263.111 213.671C254.932 209.354 248.514 203.561 243.857 196.291C239.199 189.021 236.871 180.785 236.871 171.584V143.811C239.143 145.287 242.266 146.65 246.242 147.9C250.104 149.036 254.478 150.115 259.362 151.137C264.247 152.046 269.131 152.898 274.016 153.693C278.901 154.375 283.331 155 287.307 155.568C295.826 156.817 303.267 158.805 309.628 161.531C315.989 164.257 320.931 167.949 324.452 172.607C327.973 177.15 329.734 182.83 329.734 189.646C329.734 199.529 326.156 207.083 318.999 212.308C311.729 217.42 302.528 219.976 291.396 219.976Z" fill="white"/>
</svg>