<svg width="1000" height="170" viewBox="0 0 1000 170" fill="none" xmlns="http://www.w3.org/2000/svg">
<path d="M51.6094 7.24219L0.573818 154.916C-1.77805 161.972 3.39606 169.027 10.6869 169.027H73.2466C77.9503 169.027 81.9485 166.205 83.3596 161.972L93.0964 133.702L51.774 13.5687C51.045 11.3815 51.045 9.19424 51.5859 7.24219H51.6094Z" fill="white"/>
<path d="M185.363 154.916L134.587 7.24219C135.128 9.21776 135.128 11.3815 134.398 13.5687L93.0996 133.702L102.836 161.972C104.247 166.205 108.246 169.027 112.949 169.027H175.274C182.565 169.027 187.739 161.972 185.387 154.916H185.363Z" fill="#878787"/>
<path d="M134.716 7.76117L134.458 7.03209C134.316 6.60876 134.128 6.20894 133.94 5.83264C132.858 3.66892 131.024 1.90501 128.766 0.917229C128.484 0.799636 128.225 0.682042 127.943 0.587968C127.778 0.54093 127.637 0.493893 127.473 0.446855C127.096 0.329262 126.696 0.235187 126.297 0.164631C126.203 0.164631 126.108 0.117594 125.991 0.117594C125.45 0.0470374 124.909 0 124.345 0H62.0905C61.5261 0 60.9852 0.0470374 60.4442 0.117594C60.3501 0.117594 60.2326 0.164631 60.1385 0.164631C59.7387 0.235187 59.3388 0.329262 58.9625 0.446855C58.7979 0.493893 58.6333 0.54093 58.4922 0.587968C58.2099 0.682042 57.9277 0.799636 57.669 0.917229C55.4112 1.90501 53.5768 3.62188 52.4949 5.83264C52.3068 6.23246 52.1186 6.60876 51.9775 7.03209L51.7188 7.76117C51.1779 9.73674 51.1779 11.924 51.9069 14.0877L93.2058 134.221L134.528 14.0877C135.257 11.9005 135.257 9.73674 134.716 7.76117Z" fill="#C3C3C3"/>
<path d="M306.926 164.993C279.653 164.993 263.402 151.533 263.402 132.077C263.402 111.038 280.675 98.1435 315.221 93.3928C328.062 91.6961 336.926 90.2256 341.926 88.7551V82.8732C341.926 71.9012 332.494 65.2276 318.289 65.2276C304.653 65.2276 292.948 70.3177 283.062 80.4978L266.471 67.6029C279.539 54.0294 298.062 45.8852 317.948 45.8852C354.767 45.8852 369.426 62.9653 369.426 91.9223V161.487H342.835V147.461C337.721 156.962 323.858 164.993 306.926 164.993ZM290.789 130.041C290.789 138.299 298.63 144.52 310.789 144.52C328.062 144.52 341.926 133.209 341.926 116.355V106.061C335.335 107.532 327.38 108.889 318.176 110.134C299.88 112.735 290.789 119.409 290.789 130.041Z" fill="white"/>
<path d="M390.108 161.487V2.78906H417.268V161.487H390.108Z" fill="white"/>
<path d="M486.132 161.487C460.791 161.487 448.177 150.062 448.177 127.214V70.3177H428.972V49.2786H448.177V16.2495H475.223V49.2786H503.859V70.3177H475.223V125.517C475.223 136.263 479.996 140.448 489.655 140.448H503.973V161.487H486.132Z" fill="white"/>
<path d="M516.7 161.487V49.2786H543.519V161.487H516.7ZM515.45 32.651V5.73001H544.655V32.651H515.45Z" fill="white"/>
<path d="M612.042 161.487C586.701 161.487 574.087 150.062 574.087 127.214V70.3177H554.883V49.2786H574.087V16.2495H601.133V49.2786H629.77V70.3177H601.133V125.517C601.133 136.263 605.906 140.448 615.565 140.448H629.883V161.487H612.042Z" fill="white"/>
<path d="M684.429 164.993C674.429 164.993 665.452 162.392 656.816 156.284C648.179 150.176 642.838 137.733 642.838 120.879V49.2786H670.111V117.825C670.111 135.245 676.816 143.954 690.339 143.954C706.702 143.954 716.475 129.476 716.475 112.17V49.2786H743.521V161.487H717.498V148.479H717.157C713.066 156.51 701.248 164.993 684.429 164.993Z" fill="white"/>
<path d="M811.59 164.993C798.862 164.993 786.59 160.469 776.135 151.42C765.68 142.484 758.976 126.082 758.976 105.27C758.976 68.621 781.135 45.8852 811.931 45.8852C826.59 45.8852 837.613 53.2376 843.067 61.8342V2.78906H870.341V161.487H844.09V147.008C838.749 156.623 825.795 164.993 811.59 164.993ZM786.931 105.27C786.931 129.702 798.522 143.954 815.454 143.954C832.158 143.954 843.636 129.25 843.636 105.27C843.636 82.1945 832.726 66.9243 815.454 66.9243C797.612 66.9243 786.931 82.0814 786.931 105.27Z" fill="white"/>
<path d="M944.659 164.993C910.114 164.993 885.795 141.579 885.795 104.93C885.795 68.8472 910.455 45.8852 943.75 45.8852C976.364 45.8852 1000 69.5259 1000 103.912C1000 107.306 999.774 110.699 999.319 113.979H913.295C913.295 130.833 925.455 145.199 945 145.199C958.978 145.199 969.887 138.525 975.342 128.91L998.069 135.81C990.001 152.438 971.592 164.993 944.659 164.993ZM913.75 96.673H972.273C972.273 79.4798 961.591 65.7931 943.75 65.7931C925.568 65.7931 913.864 79.9323 913.75 96.673Z" fill="white"/>
</svg>