<svg width="1000" height="170" viewBox="0 0 1000 170" fill="none" xmlns="http://www.w3.org/2000/svg">
<path d="M51.6094 7.26953L0.573818 154.943C-1.77805 161.999 3.39606 169.055 10.6869 169.055H73.2466C77.9503 169.055 81.9485 166.232 83.3596 161.999L93.0964 133.73L51.774 13.5961C51.045 11.4088 51.045 9.22158 51.5859 7.26953H51.6094Z" fill="#CFDAFF"/>
<path d="M185.363 154.943L134.587 7.26953C135.128 9.2451 135.128 11.4088 134.398 13.5961L93.0996 133.73L102.836 161.999C104.247 166.232 108.246 169.055 112.949 169.055H175.274C182.565 169.055 187.739 161.999 185.387 154.943H185.363Z" fill="#7795FA"/>
<path d="M134.716 7.78852L134.458 7.05944C134.316 6.6361 134.128 6.23628 133.94 5.85998C132.858 3.69626 131.024 1.93236 128.766 0.944573C128.484 0.82698 128.225 0.709386 127.943 0.615311C127.778 0.568274 127.637 0.521236 127.473 0.474199C127.096 0.356606 126.696 0.262531 126.297 0.191975C126.203 0.191975 126.108 0.144937 125.991 0.144937C125.45 0.0743811 124.909 0.0273438 124.345 0.0273438H62.0905C61.5261 0.0273438 60.9852 0.0743811 60.4442 0.144937C60.3501 0.144937 60.2326 0.191975 60.1385 0.191975C59.7387 0.262531 59.3388 0.356606 58.9625 0.474199C58.7979 0.521236 58.6333 0.568274 58.4922 0.615311C58.2099 0.709386 57.9277 0.82698 57.669 0.944573C55.4112 1.93236 53.5768 3.64922 52.4949 5.85998C52.3068 6.2598 52.1186 6.6361 51.9775 7.05944L51.7188 7.78852C51.1779 9.76409 51.1779 11.9513 51.9069 14.115L93.2058 134.249L134.528 14.115C135.257 11.9278 135.257 9.76409 134.716 7.78852Z" fill="#B9C9FE"/>
<path d="M306.926 165.021C279.653 165.021 263.402 151.56 263.402 132.105C263.402 111.066 280.675 98.1709 315.221 93.4201C328.062 91.7234 336.926 90.2529 341.926 88.7825V82.9006C341.926 71.9286 332.494 65.2549 318.289 65.2549C304.653 65.2549 292.948 70.345 283.062 80.5252L266.471 67.6303C279.539 54.0567 298.062 45.9125 317.948 45.9125C354.767 45.9125 369.426 62.9926 369.426 91.9496V161.514H342.835V147.488C337.721 156.99 323.858 165.021 306.926 165.021ZM290.789 130.069C290.789 138.326 298.63 144.547 310.789 144.547C328.062 144.547 341.926 133.236 341.926 116.382V106.089C335.335 107.559 327.38 108.917 318.176 110.161C299.88 112.762 290.789 119.436 290.789 130.069Z" fill="white"/>
<path d="M390.108 161.514V2.81641H417.268V161.514H390.108Z" fill="white"/>
<path d="M486.132 161.514C460.791 161.514 448.177 150.09 448.177 127.241V70.345H428.972V49.3059H448.177V16.2769H475.223V49.3059H503.859V70.345H475.223V125.544C475.223 136.29 479.996 140.475 489.655 140.475H503.973V161.514H486.132Z" fill="white"/>
<path d="M516.7 161.514V49.3059H543.519V161.514H516.7ZM515.45 32.6783V5.75735H544.655V32.6783H515.45Z" fill="white"/>
<path d="M612.042 161.514C586.701 161.514 574.087 150.09 574.087 127.241V70.345H554.883V49.3059H574.087V16.2769H601.133V49.3059H629.77V70.345H601.133V125.544C601.133 136.29 605.906 140.475 615.565 140.475H629.883V161.514H612.042Z" fill="white"/>
<path d="M684.429 165.021C674.429 165.021 665.452 162.419 656.816 156.311C648.179 150.203 642.838 137.76 642.838 120.907V49.3059H670.111V117.853C670.111 135.272 676.816 143.982 690.339 143.982C706.702 143.982 716.475 129.503 716.475 112.197V49.3059H743.521V161.514H717.498V148.506H717.157C713.066 156.537 701.248 165.021 684.429 165.021Z" fill="white"/>
<path d="M811.59 165.021C798.862 165.021 786.59 160.496 776.135 151.447C765.68 142.511 758.976 126.11 758.976 105.297C758.976 68.6483 781.135 45.9125 811.931 45.9125C826.59 45.9125 837.613 53.2649 843.067 61.8615V2.81641H870.341V161.514H844.09V147.036C838.749 156.65 825.795 165.021 811.59 165.021ZM786.931 105.297C786.931 129.729 798.522 143.982 815.454 143.982C832.158 143.982 843.636 129.277 843.636 105.297C843.636 82.2219 832.726 66.9516 815.454 66.9516C797.612 66.9516 786.931 82.1088 786.931 105.297Z" fill="white"/>
<path d="M944.659 165.021C910.114 165.021 885.795 141.606 885.795 104.958C885.795 68.8745 910.455 45.9125 943.75 45.9125C976.364 45.9125 1000 69.5532 1000 103.94C1000 107.333 999.774 110.726 999.319 114.007H913.295C913.295 130.861 925.455 145.226 945 145.226C958.978 145.226 969.887 138.552 975.342 128.938L998.069 135.838C990.001 152.465 971.592 165.021 944.659 165.021ZM913.75 96.7004H972.273C972.273 79.5072 961.591 65.8205 943.75 65.8205C925.568 65.8205 913.864 79.9596 913.75 96.7004Z" fill="white"/>
</svg>