<svg width="391" height="269" viewBox="0 0 391 269" fill="none" xmlns="http://www.w3.org/2000/svg">
<path d="M303.717 269C320.245 269 335.132 266.062 348.377 260.186C361.509 254.197 371.925 245.383 379.623 233.744C387.208 222.104 391 207.753 391 190.69C391 176 388.283 163.852 382.849 154.247C377.415 144.642 370 136.958 360.604 131.195C351.208 125.432 340.623 121.081 328.849 118.143C316.962 115.092 304.679 112.888 292 111.532C276.717 109.95 264.321 108.538 254.811 107.295C245.302 105.939 238.396 103.905 234.094 101.193C229.679 98.3678 227.472 94.0172 227.472 88.1411V87.1241C227.472 74.355 231.264 64.4673 238.849 57.4612C246.434 50.4551 257.359 46.9521 271.623 46.9521C286.679 46.9521 298.623 50.2291 307.453 56.7832C316.17 63.3373 322.057 71.0779 325.113 80.005L382.509 71.8689C377.981 56.0487 370.509 42.8275 360.094 32.2054C349.679 21.4703 336.943 13.4472 321.887 8.1361C306.83 2.71203 290.189 0 271.962 0C259.396 0 246.887 1.46902 234.434 4.40705C221.981 7.34508 210.604 12.2041 200.302 18.9842C190 25.6513 181.736 34.7479 175.509 46.2741C169.17 57.8002 166 72.2079 166 89.4971V263.745H225.094V227.98H227.132C230.868 235.213 236.132 241.993 242.925 248.321C249.604 254.536 258.038 259.564 268.226 263.406C278.302 267.135 290.132 269 303.717 269ZM287.755 223.912C275.415 223.912 264.717 221.483 255.66 216.624C246.604 211.652 239.642 205.098 234.774 196.962C229.792 188.825 227.302 179.955 227.302 170.35V139.67C229.226 141.252 232.509 142.721 237.151 144.077C241.679 145.433 246.774 146.619 252.434 147.636C258.094 148.653 263.698 149.557 269.245 150.348C274.792 151.139 279.604 151.817 283.679 152.382C292.849 153.625 301.057 155.66 308.302 158.485C315.547 161.31 321.264 165.265 325.453 170.35C329.641 175.322 331.736 181.763 331.736 189.673C331.736 200.973 327.604 209.505 319.34 215.268C311.075 221.031 300.547 223.912 287.755 223.912Z" fill="#7795FA" fill-opacity="0.8"/>
<path d="M87.283 269C70.7547 269 55.8679 266.062 42.6226 260.186C29.4906 254.197 19.0755 245.383 11.3774 233.744C3.79245 222.104 0 207.753 0 190.69C0 176 2.71698 163.852 8.15094 154.247C13.5849 144.642 21 136.958 30.3962 131.195C39.7924 125.432 50.3774 121.081 62.1509 118.143C74.0377 115.092 86.3208 112.888 99 111.532C114.283 109.95 126.679 108.538 136.189 107.295C145.698 105.939 152.604 103.905 156.906 101.193C161.321 98.3678 163.528 94.0172 163.528 88.1411V87.1241C163.528 74.355 159.736 64.4673 152.151 57.4612C144.566 50.4551 133.641 46.9521 119.377 46.9521C104.321 46.9521 92.3774 50.2291 83.5472 56.7832C74.8302 63.3373 68.9434 71.0779 65.8868 80.005L8.49056 71.8689C13.0189 56.0487 20.4906 42.8275 30.9057 32.2054C41.3207 21.4703 54.0566 13.4472 69.1132 8.1361C84.1698 2.71203 100.811 0 119.038 0C131.604 0 144.113 1.46902 156.566 4.40705C169.019 7.34508 180.396 12.2041 190.698 18.9842C201 25.6513 209.264 34.7479 215.491 46.2741C221.83 57.8002 225 72.2079 225 89.4971V263.745H165.906V227.98H163.868C160.132 235.213 154.868 241.993 148.075 248.321C141.396 254.536 132.962 259.564 122.774 263.406C112.698 267.135 100.868 269 87.283 269ZM103.245 223.912C115.585 223.912 126.283 221.483 135.34 216.624C144.396 211.652 151.358 205.098 156.226 196.962C161.208 188.825 163.698 179.955 163.698 170.35V139.67C161.774 141.252 158.491 142.721 153.849 144.077C149.321 145.433 144.226 146.619 138.566 147.636C132.906 148.653 127.302 149.557 121.755 150.348C116.208 151.139 111.396 151.817 107.321 152.382C98.1509 153.625 89.9434 155.66 82.6981 158.485C75.4528 161.31 69.7358 165.265 65.5472 170.35C61.3585 175.322 59.2641 181.763 59.2641 189.673C59.2641 200.973 63.3962 209.505 71.6604 215.268C79.9245 221.031 90.4528 223.912 103.245 223.912Z" fill="#CFDAFF"/>
</svg>